<svg xmlns="http://www.w3.org/2000/svg" fill="none" viewBox="0 0 100 100"><path fill="#fff" fill-rule="evenodd" d="M50 75.7c27.6 0 50-11.3 50-25.3S77.6 25.1 50 25.1C22.4 25 0 36.3 0 50.3s22.4 25.4 50 25.4" clip-rule="evenodd"/><path fill="#fff" fill-rule="evenodd" d="m60.1 58.5 2.5-12.8c.6-2.9.1-5-1.4-6.4-1.4-1.3-3.9-2-7.4-2h-4.3l1.2-6.3v-.4c0-.1-.1-.2-.2-.3s-.2-.2-.3-.2c-.1-.1-.2-.1-.3-.1H44c-.4 0-.7.3-.8.7l-2.6 13.6q-.3-2.25-1.8-3.9c-1.7-2-4.5-3-8.2-3H19.1c-.4 0-.7.3-.8.7L13 65.5c0 .2 0 .5.2.7q.3.3.6.3h6c.4 0 .7-.3.8-.7l1.3-6.6h4.4c2.3 0 4.3-.3 5.8-.8 1.6-.5 3-1.4 4.3-2.6 1-.9 1.9-2 2.5-3.1l-1.1 5.5c0 .2 0 .5.2.7q.3.3.6.3h5.9c.4 0 .7-.3.8-.7l2.9-15.1h4.1c1.7 0 2.2.3 2.4.5.1.1.4.6.1 2.1l-2.4 12.1v.4c0 .1.1.2.2.3s.2.2.3.2c.1.1.2.1.3.1h6c.2 0 .4-.1.5-.2.3 0 .4-.2.4-.4M32.6 48c-.4 1.9-1.1 3.3-2.1 4.1s-2.7 1.2-4.9 1.2H23l1.9-9.9h3.4c2.5 0 3.5.5 3.9 1 .7.6.8 1.8.4 3.6m52.5-7.6c-1.7-2-4.5-3-8.2-3H65.4c-.4 0-.7.3-.8.7l-5.3 27.4c0 .2 0 .5.2.7q.3.3.6.3h6c.4 0 .7-.3.8-.7l1.3-6.6h4.4c2.3 0 4.3-.3 5.8-.8 1.6-.5 3-1.4 4.3-2.6 1.1-1 1.9-2.1 2.6-3.2.7-1.2 1.1-2.5 1.4-3.9.7-3.5.2-6.3-1.6-8.3M79.3 48c-.4 1.9-1.1 3.3-2.1 4.1s-2.7 1.2-4.9 1.2h-2.6l1.9-9.9H75c2.5 0 3.5.5 3.9 1 .6.6.7 1.8.4 3.6" clip-rule="evenodd"/><path fill="#000" fill-rule="evenodd" d="M28.2 42.6c2.3 0 3.8.4 4.5 1.3.8.8.9 2.3.5 4.3q-.6 3.15-2.4 4.5c-1.2.9-3 1.4-5.4 1.4h-3.6L24 42.6zM13.6 65.7h6l1.4-7.3h5.1c2.3 0 4.1-.2 5.6-.7s2.8-1.3 4-2.4q1.5-1.35 2.4-3c.6-1.1 1.1-2.3 1.3-3.7.6-3.3.2-5.8-1.4-7.6s-4.1-2.7-7.6-2.7H19zm30.2-34.8h5.9l-1.4 7.3h5.3c3.3 0 5.6.6 6.9 1.7 1.3 1.2 1.6 3 1.1 5.6l-2.5 12.8h-6l2.4-12.1c.3-1.4.2-2.3-.3-2.8s-1.5-.8-3-.8h-4.7l-3.1 15.7h-5.9zm31 11.7c2.3 0 3.8.4 4.5 1.3.8.8.9 2.3.5 4.3q-.6 3.15-2.4 4.5c-1.2.9-3 1.4-5.4 1.4h-3.6l2.2-11.5zM60.3 65.7h6l1.4-7.3h5.1c2.3 0 4.1-.2 5.6-.7s2.8-1.3 4-2.4q1.5-1.35 2.4-3c.6-1.1 1.1-2.3 1.3-3.7.6-3.3.2-5.8-1.4-7.6s-4.1-2.7-7.6-2.7H65.6z" clip-rule="evenodd"/></svg>